<?xml version="1.0" encoding="UTF-8" standalone="no"?>
<!-- Created with Inkscape (http://www.inkscape.org/) -->
<svg width="150mm" height="150mm" viewBox="0 0 150 150" version="1.1" id="svg1" xml:space="preserve" inkscape:version="1.4.2 (ebf0e940d0, 2025-05-08)" sodipodi:docname="axonlib.svg" inkscape:export-filename="axonlib.png" inkscape:export-xdpi="86.698669" inkscape:export-ydpi="86.698669" xmlns:inkscape="http://www.inkscape.org/namespaces/inkscape" xmlns:sodipodi="http://sodipodi.sourceforge.net/DTD/sodipodi-0.dtd" xmlns="http://www.w3.org/2000/svg" xmlns:svg="http://www.w3.org/2000/svg" author="willizdev">
    <sodipodi:namedview id="namedview1" pagecolor="#ffffff" bordercolor="#000000" borderopacity="0.25" inkscape:showpageshadow="2" inkscape:pageopacity="0.0" inkscape:pagecheckerboard="0" inkscape:deskcolor="#d1d1d1" inkscape:document-units="mm" inkscape:zoom="0.64497755" inkscape:cx="213.18571" inkscape:cy="364.35377" inkscape:window-width="1680" inkscape:window-height="972" inkscape:window-x="0" inkscape:window-y="48" inkscape:window-maximized="1" inkscape:current-layer="layer1-5" />
    <defs id="defs1" />
    <g inkscape:label="Layer 1" inkscape:groupmode="layer" id="layer1" transform="translate(-44.346761,-18.630642)">
        <g inkscape:label="Layer 1" id="layer1-5" transform="translate(-215.296,210.26054)">
            <rect style="fill:#2c97ff;fill-opacity:1;stroke-width:4.98335;stroke-linejoin:bevel" id="rect1" width="150" height="150" x="259.64276" y="-191.6299" />
            <g style="fill:#ffffff;fill-opacity:1" id="g1" transform="matrix(0.3515633,0,0,0.35460762,288.93947,-158.29659)">
                <path d="m 255.413,147.195 c -5.044,-2.812 -15.403,-9.266 -23.638,-16.198 8.415,-5.436 18.043,-10.489 20.078,-11.392 2.528,-1.122 3.668,-4.081 2.547,-6.609 -1.123,-2.529 -4.081,-3.67 -6.609,-2.547 -3.014,1.338 -17.239,8.867 -26.895,15.837 H 203.68 c -5.669,0 -11.276,-1.181 -16.463,-3.468 -14.435,-6.365 -23.085,-21.346 -21.379,-37.03 0.626,-5.76 2.483,-11.318 5.444,-16.298 l 5.704,-9.594 c 14.034,-1.87 27.56,-7.069 39.22,-15.105 2.187,-1.507 3.064,-4.438 1.751,-6.748 -1.476,-2.596 -4.82,-3.314 -7.217,-1.651 -6,4.165 -15.134,9.22 -26.952,12.064 l 8.453,-14.217 c 1.337,-2.248 0.891,-5.234 -1.218,-6.782 -2.419,-1.775 -5.779,-1.048 -7.278,1.471 l -21.544,36.233 c -2.826,4.753 -6.582,8.886 -11.044,12.152 -12.729,9.318 -30.028,9.318 -42.757,0 -4.61,-3.375 -8.446,-7.697 -11.248,-12.677 L 86.467,45.651 C 88.342,34.01 85.874,13.511 83.586,5.675 82.83,3.088 80.2,1.388 77.577,2.008 c -2.835,0.67 -4.479,3.575 -3.651,6.322 1.982,6.574 3.743,22.643 3.016,32.538 -7.472,-2.106 -14.741,-5.206 -19.164,-8.224 -2.13,-1.453 -5.075,-1.237 -6.769,0.707 -1.997,2.293 -1.517,5.741 0.913,7.423 6,4.154 19.198,9.099 26.341,10.724 l 10.362,18.411 c 2.755,4.894 4.488,10.297 5.096,15.88 v 0 c 1.706,15.683 -6.944,30.665 -21.379,37.03 -5.187,2.287 -10.794,3.468 -16.463,3.468 H 43.376 C 34.993,114.301 32.277,110.191 32.25,110.149 c -1.523,-2.309 -4.628,-2.949 -6.938,-1.427 -2.31,1.522 -2.949,4.627 -1.428,6.936 0.095,0.144 1.931,2.924 7.281,10.628 H 7.224 c -2.616,0 -4.952,1.912 -5.2,4.517 -0.285,2.987 2.056,5.5 4.985,5.5 h 22.769 c -5.411,5.665 -12.411,12.135 -18.617,16.614 -1.999,1.443 -2.609,4.147 -1.37,6.279 l 0.093,0.16 c 1.508,2.597 4.89,3.312 7.291,1.566 9.494,-6.904 20.299,-17.645 26.014,-24.619 h 12.703 c 5.665,0 11.269,1.18 16.452,3.466 14.434,6.364 23.084,21.345 21.378,37.028 v 0 c -0.609,5.598 -2.342,11.016 -5.096,15.929 l -9.924,17.7 c -16.216,2.254 -31.256,11.813 -31.922,12.241 -2.327,1.496 -2.958,4.567 -1.506,6.921 1.883,3.054 5.574,2.321 6.921,1.506 0.781,-0.472 9.107,-5.791 19.967,-9.002 l -1.946,3.581 c -1.32,2.38 -0.5,5.379 1.847,6.757 v 0 c 2.425,1.424 5.547,0.575 6.917,-1.881 l 7.215,-13.006 c 0,0 0,0 0,0 l 10.998,-19.617 c 2.787,-4.971 6.61,-9.287 11.208,-12.653 12.729,-9.319 30.028,-9.319 42.757,0 5.314,3.89 9.633,8.98 12.607,14.855 l 15.312,30.251 c 1.252,2.467 4.267,3.451 6.733,2.199 2.466,-1.252 3.451,-4.266 2.199,-6.733 l -8.87,-17.583 c 7.174,1.609 16.973,4.753 24.166,10.444 2.274,1.799 5.543,0.929 7.04,-0.775 1.825,-2.079 1.384,-5.311 -0.775,-7.04 -12.063,-9.671 -29.382,-12.922 -36.132,-13.862 l -3.826,-7.537 c -2.014,-3.969 -3.293,-8.27 -3.775,-12.694 -1.706,-15.683 6.943,-30.664 21.378,-37.028 v 0 c 5.184,-2.286 10.787,-3.466 16.453,-3.466 h 18.958 c 9.23,8.339 22.01,16.333 27.908,19.641 2.37,1.329 5.57,0.216 6.814,-1.936 1.385,-2.395 0.481,-5.467 -1.935,-6.814 z m -142.328,-1.988 c -9.22,0 -16.695,-6.229 -16.695,-13.912 0,-7.683 7.474,-13.912 16.695,-13.912 9.22,0 16.695,6.229 16.695,13.912 0,7.683 -7.475,13.912 -16.695,13.912 z" id="path1" style="fill:#ffffff;fill-opacity:1" />
            </g>
        </g>
    </g>
</svg>